<svg width="24" height="25" viewBox="0 0 24 25" fill="none" xmlns="http://www.w3.org/2000/svg">
<rect width="24" height="24" transform="translate(0 0.325439)" fill="#F9FBFD"/>
<path d="M20.25 6.70044C20.25 8.97861 16.5563 10.8254 12 10.8254C7.44365 10.8254 3.75 8.97861 3.75 6.70044M20.25 6.70044C20.25 4.42226 16.5563 2.57544 12 2.57544C7.44365 2.57544 3.75 4.42226 3.75 6.70044M20.25 6.70044V17.9504C20.25 20.2286 16.5563 22.0754 12 22.0754C7.44365 22.0754 3.75 20.2286 3.75 17.9504V6.70044M20.25 6.70044V10.4504M3.75 6.70044V10.4504M20.25 10.4504V14.2004C20.25 16.4786 16.5563 18.3254 12 18.3254C7.44365 18.3254 3.75 16.4786 3.75 14.2004V10.4504M20.25 10.4504C20.25 12.7286 16.5563 14.5754 12 14.5754C7.44365 14.5754 3.75 12.7286 3.75 10.4504" stroke="#0F172A" stroke-width="1.5" stroke-linecap="round" stroke-linejoin="round"/>
</svg>
