<svg width="20" height="21" viewBox="0 0 20 21" fill="none" xmlns="http://www.w3.org/2000/svg">
<path fill-rule="evenodd" clip-rule="evenodd" d="M10 3.79956C10.3452 3.79956 10.625 4.07938 10.625 4.42456V10.0496H16.25C16.5952 10.0496 16.875 10.3294 16.875 10.6746C16.875 11.0197 16.5952 11.2996 16.25 11.2996H10.625V16.9246C10.625 17.2697 10.3452 17.5496 10 17.5496C9.65482 17.5496 9.375 17.2697 9.375 16.9246V11.2996H3.75C3.40482 11.2996 3.125 11.0197 3.125 10.6746C3.125 10.3294 3.40482 10.0496 3.75 10.0496H9.375V4.42456C9.375 4.07938 9.65482 3.79956 10 3.79956Z" fill="white"/>
</svg>
